<?xml version="1.0" encoding="UTF-8" standalone="no"?><!DOCTYPE svg PUBLIC "-//W3C//DTD SVG 1.1//EN" "http://www.w3.org/Graphics/SVG/1.1/DTD/svg11.dtd"><svg width="100%" height="100%" viewBox="0 0 3707 3707" version="1.1" xmlns="http://www.w3.org/2000/svg" xmlns:xlink="http://www.w3.org/1999/xlink" xml:space="preserve" xmlns:serif="http://www.serif.com/" style="fill-rule:evenodd;clip-rule:evenodd;stroke-linejoin:round;stroke-miterlimit:2;"><path d="M855.326,0c0,787.227 638.138,1425.404 1425.404,1425.456l0,0.026c472.331,-0 855.26,382.943 855.26,855.286c0,472.344 -382.93,855.273 -855.313,855.273c-472.214,0 -855.039,-382.734 -855.234,-854.961l0.052,0c-0,-787.253 -638.229,-1425.404 -1425.495,-1425.404l0,6.94c472.266,0 855.143,945.703 855.326,1418.151l-0.091,0c-0,787.266 638.229,1425.443 1425.443,1425.443c787.305,0 1425.495,-638.177 1425.495,-1425.443c0,-787.227 -638.151,-1425.443 -1425.404,-1425.443l0,-0.104c-472.344,-0 -1418.451,-382.865 -1418.451,-855.221l-6.992,0Z" style="fill:url(#_Linear1);fill-rule:nonzero;"/><defs><linearGradient id="_Linear1" x1="0" y1="0" x2="1" y2="0" gradientUnits="userSpaceOnUse" gradientTransform="matrix(2861.025533,2861.025533,-2861.025533,2861.025533,427.636487,427.689552)"><stop offset="0" style="stop-color:#f1d53b;stop-opacity:1"/><stop offset="0.13" style="stop-color:#f1d53b;stop-opacity:1"/><stop offset="0.7" style="stop-color:#e83a5a;stop-opacity:1"/><stop offset="1" style="stop-color:#e83a5a;stop-opacity:1"/></linearGradient></defs></svg>