<?xml version="1.0" encoding="UTF-8" standalone="no"?><!DOCTYPE svg PUBLIC "-//W3C//DTD SVG 1.1//EN" "http://www.w3.org/Graphics/SVG/1.1/DTD/svg11.dtd"><svg width="100%" height="100%" viewBox="0 0 3707 3707" version="1.1" xmlns="http://www.w3.org/2000/svg" xmlns:xlink="http://www.w3.org/1999/xlink" xml:space="preserve" xmlns:serif="http://www.serif.com/" style="fill-rule:evenodd;clip-rule:evenodd;stroke-linejoin:round;stroke-miterlimit:2;"><path d="M2280.768,855.312l0,-0.091c-472.344,0 -1418.464,-382.878 -1418.464,-855.221l-6.979,0c0,787.214 638.138,1425.391 1425.404,1425.443l0,0.039c472.331,0 855.273,382.93 855.273,855.273c0,472.357 -382.943,855.286 -855.326,855.286c-472.214,0 -855.052,-382.747 -855.234,-854.961l0.052,0c0,-787.266 -638.229,-1425.404 -1425.495,-1425.404l0,6.94c472.253,0 855.143,945.703 855.326,1418.138l-0.091,0c0,787.266 638.229,1425.456 1425.443,1425.456c787.305,0 1425.495,-638.19 1425.495,-1425.456c0,-787.214 -638.151,-1425.443 -1425.404,-1425.443" style="fill:#1d1d1b;fill-rule:nonzero;"/></svg>